<mxfile host="app.diagrams.net" modified="2021-04-23T10:35:13.033Z" agent="5.0 (Windows NT 10.0; Win64; x64) AppleWebKit/537.36 (KHTML, like Gecko) Chrome/89.0.4389.128 Safari/537.36" etag="yrOeiI6uyKO7MetOhGNN" version="14.6.5" type="github">
  <diagram id="jDGhtGgy6Fya30NNC-IF" name="Page-2">
    <mxGraphModel dx="1695" dy="1651" grid="1" gridSize="10" guides="0" tooltips="1" connect="1" arrows="1" fold="1" page="1" pageScale="1" pageWidth="827" pageHeight="1169" math="0" shadow="0">
      <root>
        <mxCell id="gaLubMEoClc1zH-KKvDd-0" />
        <mxCell id="gaLubMEoClc1zH-KKvDd-1" parent="gaLubMEoClc1zH-KKvDd-0" />
        <mxCell id="gaLubMEoClc1zH-KKvDd-2" value="Address" style="swimlane;fontStyle=1;align=center;verticalAlign=top;childLayout=stackLayout;horizontal=1;startSize=26;horizontalStack=0;resizeParent=1;resizeParentMax=0;resizeLast=0;collapsible=1;marginBottom=0;" parent="gaLubMEoClc1zH-KKvDd-1" vertex="1">
          <mxGeometry x="-10" y="-400" width="290" height="166" as="geometry" />
        </mxCell>
        <mxCell id="gaLubMEoClc1zH-KKvDd-3" value="+ street: String&#xa;&#xa;+ city: String&#xa;&#xa;+ state: String" style="text;strokeColor=none;fillColor=none;align=left;verticalAlign=top;spacingLeft=4;spacingRight=4;overflow=hidden;rotatable=0;points=[[0,0.5],[1,0.5]];portConstraint=eastwest;" parent="gaLubMEoClc1zH-KKvDd-2" vertex="1">
          <mxGeometry y="26" width="290" height="84" as="geometry" />
        </mxCell>
        <mxCell id="gaLubMEoClc1zH-KKvDd-4" value="" style="line;strokeWidth=1;fillColor=none;align=left;verticalAlign=middle;spacingTop=-1;spacingLeft=3;spacingRight=3;rotatable=0;labelPosition=right;points=[];portConstraint=eastwest;" parent="gaLubMEoClc1zH-KKvDd-2" vertex="1">
          <mxGeometry y="110" width="290" height="8" as="geometry" />
        </mxCell>
        <mxCell id="gaLubMEoClc1zH-KKvDd-5" value="+ getAddressDetails(): String&#xa;&#xa;+ updateAddressDetails(addressDetail: String): void" style="text;strokeColor=none;fillColor=none;align=left;verticalAlign=top;spacingLeft=4;spacingRight=4;overflow=hidden;rotatable=0;points=[[0,0.5],[1,0.5]];portConstraint=eastwest;" parent="gaLubMEoClc1zH-KKvDd-2" vertex="1">
          <mxGeometry y="118" width="290" height="48" as="geometry" />
        </mxCell>
        <mxCell id="gaLubMEoClc1zH-KKvDd-6" value="Flight" style="swimlane;fontStyle=1;align=center;verticalAlign=top;childLayout=stackLayout;horizontal=1;startSize=26;horizontalStack=0;resizeParent=1;resizeParentMax=0;resizeLast=0;collapsible=1;marginBottom=0;" parent="gaLubMEoClc1zH-KKvDd-1" vertex="1">
          <mxGeometry x="40" y="-60" width="200" height="224" as="geometry" />
        </mxCell>
        <mxCell id="gaLubMEoClc1zH-KKvDd-7" value="+ flightNumber: String&#xa;&#xa;+ airline: String&#xa;&#xa;+ capacity: int&#xa;&#xa;- bookedSeats: int" style="text;strokeColor=none;fillColor=none;align=left;verticalAlign=top;spacingLeft=4;spacingRight=4;overflow=hidden;rotatable=0;points=[[0,0.5],[1,0.5]];portConstraint=eastwest;" parent="gaLubMEoClc1zH-KKvDd-6" vertex="1">
          <mxGeometry y="26" width="200" height="114" as="geometry" />
        </mxCell>
        <mxCell id="gaLubMEoClc1zH-KKvDd-8" value="" style="line;strokeWidth=1;fillColor=none;align=left;verticalAlign=middle;spacingTop=-1;spacingLeft=3;spacingRight=3;rotatable=0;labelPosition=right;points=[];portConstraint=eastwest;" parent="gaLubMEoClc1zH-KKvDd-6" vertex="1">
          <mxGeometry y="140" width="200" height="8" as="geometry" />
        </mxCell>
        <mxCell id="gaLubMEoClc1zH-KKvDd-9" value="+ getFlightDetails(): String&#xa;&#xa;+ checkAvailability(): boolean&#xa;&#xa;+ increamentBookingCourier(): void" style="text;strokeColor=none;fillColor=none;align=left;verticalAlign=top;spacingLeft=4;spacingRight=4;overflow=hidden;rotatable=0;points=[[0,0.5],[1,0.5]];portConstraint=eastwest;" parent="gaLubMEoClc1zH-KKvDd-6" vertex="1">
          <mxGeometry y="148" width="200" height="76" as="geometry" />
        </mxCell>
        <mxCell id="gaLubMEoClc1zH-KKvDd-10" value="Ticket" style="swimlane;fontStyle=1;align=center;verticalAlign=top;childLayout=stackLayout;horizontal=1;startSize=26;horizontalStack=0;resizeParent=1;resizeParentMax=0;resizeLast=0;collapsible=1;marginBottom=0;" parent="gaLubMEoClc1zH-KKvDd-1" vertex="1">
          <mxGeometry x="470" y="-60" width="160" height="390" as="geometry" />
        </mxCell>
        <mxCell id="gaLubMEoClc1zH-KKvDd-11" value="+ field: type: String&#xa;&#xa;+ from: String&#xa;&#xa;+ to: String&#xa;&#xa;+ flight: Flight&#xa;&#xa;+ departureDateTime: String&#xa;&#xa;+ arrivalDateTime: String&#xa;&#xa;+ passenger: Passenger&#xa;&#xa;+ seatNo: String&#xa;&#xa;+ price: float&#xa;&#xa;+ cancelled: boolean" style="text;strokeColor=none;fillColor=none;align=left;verticalAlign=top;spacingLeft=4;spacingRight=4;overflow=hidden;rotatable=0;points=[[0,0.5],[1,0.5]];portConstraint=eastwest;" parent="gaLubMEoClc1zH-KKvDd-10" vertex="1">
          <mxGeometry y="26" width="160" height="274" as="geometry" />
        </mxCell>
        <mxCell id="gaLubMEoClc1zH-KKvDd-12" value="" style="line;strokeWidth=1;fillColor=none;align=left;verticalAlign=middle;spacingTop=-1;spacingLeft=3;spacingRight=3;rotatable=0;labelPosition=right;points=[];portConstraint=eastwest;" parent="gaLubMEoClc1zH-KKvDd-10" vertex="1">
          <mxGeometry y="300" width="160" height="8" as="geometry" />
        </mxCell>
        <mxCell id="gaLubMEoClc1zH-KKvDd-13" value="+ checkStatus(): String&#xa;&#xa;+ getFlightDuration(): int&#xa;&#xa;+ cancel(): void" style="text;strokeColor=none;fillColor=none;align=left;verticalAlign=top;spacingLeft=4;spacingRight=4;overflow=hidden;rotatable=0;points=[[0,0.5],[1,0.5]];portConstraint=eastwest;" parent="gaLubMEoClc1zH-KKvDd-10" vertex="1">
          <mxGeometry y="308" width="160" height="82" as="geometry" />
        </mxCell>
        <mxCell id="gaLubMEoClc1zH-KKvDd-14" value="Passenger" style="swimlane;fontStyle=1;align=center;verticalAlign=top;childLayout=stackLayout;horizontal=1;startSize=26;horizontalStack=0;resizeParent=1;resizeParentMax=0;resizeLast=0;collapsible=1;marginBottom=0;" parent="gaLubMEoClc1zH-KKvDd-1" vertex="1">
          <mxGeometry x="470" y="-400" width="160" height="160" as="geometry" />
        </mxCell>
        <mxCell id="gaLubMEoClc1zH-KKvDd-15" value="+ id: int&#xa;&#xa;+ address: Address&#xa;&#xa;+ contact: Contact" style="text;strokeColor=none;fillColor=none;align=left;verticalAlign=top;spacingLeft=4;spacingRight=4;overflow=hidden;rotatable=0;points=[[0,0.5],[1,0.5]];portConstraint=eastwest;" parent="gaLubMEoClc1zH-KKvDd-14" vertex="1">
          <mxGeometry y="26" width="160" height="74" as="geometry" />
        </mxCell>
        <mxCell id="gaLubMEoClc1zH-KKvDd-16" value="" style="line;strokeWidth=1;fillColor=none;align=left;verticalAlign=middle;spacingTop=-1;spacingLeft=3;spacingRight=3;rotatable=0;labelPosition=right;points=[];portConstraint=eastwest;" parent="gaLubMEoClc1zH-KKvDd-14" vertex="1">
          <mxGeometry y="100" width="160" height="8" as="geometry" />
        </mxCell>
        <mxCell id="gaLubMEoClc1zH-KKvDd-17" value="+ getContact(): Contact&#xa;&#xa;+ getAddress(): Address" style="text;strokeColor=none;fillColor=none;align=left;verticalAlign=top;spacingLeft=4;spacingRight=4;overflow=hidden;rotatable=0;points=[[0,0.5],[1,0.5]];portConstraint=eastwest;" parent="gaLubMEoClc1zH-KKvDd-14" vertex="1">
          <mxGeometry y="108" width="160" height="52" as="geometry" />
        </mxCell>
        <mxCell id="gaLubMEoClc1zH-KKvDd-18" value="Contact" style="swimlane;fontStyle=1;align=center;verticalAlign=top;childLayout=stackLayout;horizontal=1;startSize=26;horizontalStack=0;resizeParent=1;resizeParentMax=0;resizeLast=0;collapsible=1;marginBottom=0;" parent="gaLubMEoClc1zH-KKvDd-1" vertex="1">
          <mxGeometry x="827" y="-400" width="280" height="170" as="geometry" />
        </mxCell>
        <mxCell id="gaLubMEoClc1zH-KKvDd-19" value="+ name: String&#xa;&#xa;+ phone: String&#xa;&#xa;+ email: String " style="text;strokeColor=none;fillColor=none;align=left;verticalAlign=top;spacingLeft=4;spacingRight=4;overflow=hidden;rotatable=0;points=[[0,0.5],[1,0.5]];portConstraint=eastwest;" parent="gaLubMEoClc1zH-KKvDd-18" vertex="1">
          <mxGeometry y="26" width="280" height="84" as="geometry" />
        </mxCell>
        <mxCell id="gaLubMEoClc1zH-KKvDd-20" value="" style="line;strokeWidth=1;fillColor=none;align=left;verticalAlign=middle;spacingTop=-1;spacingLeft=3;spacingRight=3;rotatable=0;labelPosition=right;points=[];portConstraint=eastwest;" parent="gaLubMEoClc1zH-KKvDd-18" vertex="1">
          <mxGeometry y="110" width="280" height="8" as="geometry" />
        </mxCell>
        <mxCell id="gaLubMEoClc1zH-KKvDd-21" value="+ getContactDetails(): String&#xa;&#xa;+ updateContactDetails(contactDetail: String): void" style="text;strokeColor=none;fillColor=none;align=left;verticalAlign=top;spacingLeft=4;spacingRight=4;overflow=hidden;rotatable=0;points=[[0,0.5],[1,0.5]];portConstraint=eastwest;" parent="gaLubMEoClc1zH-KKvDd-18" vertex="1">
          <mxGeometry y="118" width="280" height="52" as="geometry" />
        </mxCell>
        <mxCell id="gaLubMEoClc1zH-KKvDd-22" value="RegularTicket" style="swimlane;fontStyle=1;align=center;verticalAlign=top;childLayout=stackLayout;horizontal=1;startSize=26;horizontalStack=0;resizeParent=1;resizeParentMax=0;resizeLast=0;collapsible=1;marginBottom=0;" parent="gaLubMEoClc1zH-KKvDd-1" vertex="1">
          <mxGeometry x="40" y="440" width="308" height="120" as="geometry" />
        </mxCell>
        <mxCell id="gaLubMEoClc1zH-KKvDd-23" value="+ specialServices: String " style="text;strokeColor=none;fillColor=none;align=left;verticalAlign=top;spacingLeft=4;spacingRight=4;overflow=hidden;rotatable=0;points=[[0,0.5],[1,0.5]];portConstraint=eastwest;" parent="gaLubMEoClc1zH-KKvDd-22" vertex="1">
          <mxGeometry y="26" width="308" height="26" as="geometry" />
        </mxCell>
        <mxCell id="gaLubMEoClc1zH-KKvDd-24" value="" style="line;strokeWidth=1;fillColor=none;align=left;verticalAlign=middle;spacingTop=-1;spacingLeft=3;spacingRight=3;rotatable=0;labelPosition=right;points=[];portConstraint=eastwest;" parent="gaLubMEoClc1zH-KKvDd-22" vertex="1">
          <mxGeometry y="52" width="308" height="8" as="geometry" />
        </mxCell>
        <mxCell id="gaLubMEoClc1zH-KKvDd-25" value="+ getSpecialServices(): String&#xa;&#xa;+ updateSpecialServices(specialServices: String): void" style="text;strokeColor=none;fillColor=none;align=left;verticalAlign=top;spacingLeft=4;spacingRight=4;overflow=hidden;rotatable=0;points=[[0,0.5],[1,0.5]];portConstraint=eastwest;" parent="gaLubMEoClc1zH-KKvDd-22" vertex="1">
          <mxGeometry y="60" width="308" height="60" as="geometry" />
        </mxCell>
        <mxCell id="-ufgY64Nv8U7tKOPMm9p-1" value="TouristTicket" style="swimlane;fontStyle=1;align=center;verticalAlign=top;childLayout=stackLayout;horizontal=1;startSize=26;horizontalStack=0;resizeParent=1;resizeParentMax=0;resizeLast=0;collapsible=1;marginBottom=0;" parent="gaLubMEoClc1zH-KKvDd-1" vertex="1">
          <mxGeometry x="720" y="440" width="260" height="200" as="geometry" />
        </mxCell>
        <mxCell id="-ufgY64Nv8U7tKOPMm9p-2" value="+ hotelAddress: String&#xa;&#xa;+ selecedTouristLocation: String(0...5)" style="text;strokeColor=none;fillColor=none;align=left;verticalAlign=top;spacingLeft=4;spacingRight=4;overflow=hidden;rotatable=0;points=[[0,0.5],[1,0.5]];portConstraint=eastwest;" parent="-ufgY64Nv8U7tKOPMm9p-1" vertex="1">
          <mxGeometry y="26" width="260" height="54" as="geometry" />
        </mxCell>
        <mxCell id="-ufgY64Nv8U7tKOPMm9p-3" value="" style="line;strokeWidth=1;fillColor=none;align=left;verticalAlign=middle;spacingTop=-1;spacingLeft=3;spacingRight=3;rotatable=0;labelPosition=right;points=[];portConstraint=eastwest;" parent="-ufgY64Nv8U7tKOPMm9p-1" vertex="1">
          <mxGeometry y="80" width="260" height="8" as="geometry" />
        </mxCell>
        <mxCell id="-ufgY64Nv8U7tKOPMm9p-4" value="+ getHotelAddress(): String&#xa;&#xa;+ getTouristLocation(): String(0...5)&#xa;&#xa;+ removeTouristLocation(location: String): void&#xa;&#xa;+ addTouristLocation(location: String): void&#xa;&#xa;" style="text;strokeColor=none;fillColor=none;align=left;verticalAlign=top;spacingLeft=4;spacingRight=4;overflow=hidden;rotatable=0;points=[[0,0.5],[1,0.5]];portConstraint=eastwest;" parent="-ufgY64Nv8U7tKOPMm9p-1" vertex="1">
          <mxGeometry y="88" width="260" height="112" as="geometry" />
        </mxCell>
        <mxCell id="-ufgY64Nv8U7tKOPMm9p-5" value="" style="rhombus;whiteSpace=wrap;html=1;fillColor=#000000;gradientColor=#000000;" parent="gaLubMEoClc1zH-KKvDd-1" vertex="1">
          <mxGeometry x="430" y="-350" width="40" height="30" as="geometry" />
        </mxCell>
        <mxCell id="-ufgY64Nv8U7tKOPMm9p-6" value="" style="rhombus;whiteSpace=wrap;html=1;fillColor=#000000;gradientColor=#000000;" parent="gaLubMEoClc1zH-KKvDd-1" vertex="1">
          <mxGeometry x="630" y="-330" width="40" height="30" as="geometry" />
        </mxCell>
        <mxCell id="-ufgY64Nv8U7tKOPMm9p-7" value="" style="rhombus;whiteSpace=wrap;html=1;fontStyle=1;verticalAlign=top;startSize=26;" parent="gaLubMEoClc1zH-KKvDd-1" vertex="1">
          <mxGeometry x="540" y="-100" width="30" height="40" as="geometry" />
        </mxCell>
        <mxCell id="-ufgY64Nv8U7tKOPMm9p-9" value="" style="rhombus;whiteSpace=wrap;html=1;" parent="gaLubMEoClc1zH-KKvDd-1" vertex="1">
          <mxGeometry x="430" y="20" width="40" height="30" as="geometry" />
        </mxCell>
        <mxCell id="-ufgY64Nv8U7tKOPMm9p-10" value="" style="triangle;whiteSpace=wrap;html=1;direction=south;" parent="gaLubMEoClc1zH-KKvDd-1" vertex="1">
          <mxGeometry x="480" y="330" width="40" height="30" as="geometry" />
        </mxCell>
        <mxCell id="-ufgY64Nv8U7tKOPMm9p-11" value="" style="triangle;whiteSpace=wrap;html=1;direction=south;" parent="gaLubMEoClc1zH-KKvDd-1" vertex="1">
          <mxGeometry x="580" y="330" width="40" height="30" as="geometry" />
        </mxCell>
        <mxCell id="-ufgY64Nv8U7tKOPMm9p-12" value="" style="endArrow=none;html=1;entryX=0.5;entryY=1;entryDx=0;entryDy=0;exitX=0.62;exitY=0.017;exitDx=0;exitDy=0;exitPerimeter=0;" parent="gaLubMEoClc1zH-KKvDd-1" source="gaLubMEoClc1zH-KKvDd-22" target="-ufgY64Nv8U7tKOPMm9p-10" edge="1">
          <mxGeometry width="50" height="50" relative="1" as="geometry">
            <mxPoint x="620" y="480" as="sourcePoint" />
            <mxPoint x="670" y="430" as="targetPoint" />
          </mxGeometry>
        </mxCell>
        <mxCell id="-ufgY64Nv8U7tKOPMm9p-13" value="" style="endArrow=none;html=1;entryX=0.5;entryY=0;entryDx=0;entryDy=0;exitX=0.577;exitY=0;exitDx=0;exitDy=0;exitPerimeter=0;" parent="gaLubMEoClc1zH-KKvDd-1" source="-ufgY64Nv8U7tKOPMm9p-1" target="-ufgY64Nv8U7tKOPMm9p-11" edge="1">
          <mxGeometry width="50" height="50" relative="1" as="geometry">
            <mxPoint x="570" y="480" as="sourcePoint" />
            <mxPoint x="620" y="430" as="targetPoint" />
          </mxGeometry>
        </mxCell>
        <mxCell id="-ufgY64Nv8U7tKOPMm9p-14" value="" style="endArrow=none;html=1;entryX=0;entryY=0.5;entryDx=0;entryDy=0;" parent="gaLubMEoClc1zH-KKvDd-1" target="-ufgY64Nv8U7tKOPMm9p-9" edge="1">
          <mxGeometry width="50" height="50" relative="1" as="geometry">
            <mxPoint x="240" y="35" as="sourcePoint" />
            <mxPoint x="620" y="60" as="targetPoint" />
          </mxGeometry>
        </mxCell>
        <mxCell id="-ufgY64Nv8U7tKOPMm9p-15" value="1" style="text;html=1;align=center;verticalAlign=middle;resizable=0;points=[];autosize=1;strokeColor=none;" parent="gaLubMEoClc1zH-KKvDd-1" vertex="1">
          <mxGeometry x="430" width="20" height="20" as="geometry" />
        </mxCell>
        <mxCell id="-ufgY64Nv8U7tKOPMm9p-16" value="1" style="text;html=1;align=center;verticalAlign=middle;resizable=0;points=[];autosize=1;strokeColor=none;" parent="gaLubMEoClc1zH-KKvDd-1" vertex="1">
          <mxGeometry x="240" width="20" height="20" as="geometry" />
        </mxCell>
        <mxCell id="-ufgY64Nv8U7tKOPMm9p-17" value="" style="endArrow=none;html=1;exitX=0.5;exitY=0;exitDx=0;exitDy=0;" parent="gaLubMEoClc1zH-KKvDd-1" source="-ufgY64Nv8U7tKOPMm9p-7" edge="1">
          <mxGeometry width="50" height="50" relative="1" as="geometry">
            <mxPoint x="570" y="-140" as="sourcePoint" />
            <mxPoint x="556" y="-240" as="targetPoint" />
          </mxGeometry>
        </mxCell>
        <mxCell id="-ufgY64Nv8U7tKOPMm9p-18" value="1" style="text;html=1;align=center;verticalAlign=middle;resizable=0;points=[];autosize=1;strokeColor=none;" parent="gaLubMEoClc1zH-KKvDd-1" vertex="1">
          <mxGeometry x="560" y="-230" width="20" height="20" as="geometry" />
        </mxCell>
        <mxCell id="-ufgY64Nv8U7tKOPMm9p-19" value="1" style="text;html=1;align=center;verticalAlign=middle;resizable=0;points=[];autosize=1;strokeColor=none;" parent="gaLubMEoClc1zH-KKvDd-1" vertex="1">
          <mxGeometry x="570" y="-90" width="20" height="20" as="geometry" />
        </mxCell>
        <mxCell id="-ufgY64Nv8U7tKOPMm9p-20" value="" style="endArrow=none;html=1;entryX=0;entryY=0.5;entryDx=0;entryDy=0;" parent="gaLubMEoClc1zH-KKvDd-1" target="-ufgY64Nv8U7tKOPMm9p-5" edge="1">
          <mxGeometry width="50" height="50" relative="1" as="geometry">
            <mxPoint x="280" y="-335" as="sourcePoint" />
            <mxPoint x="620" y="-190" as="targetPoint" />
          </mxGeometry>
        </mxCell>
        <mxCell id="-ufgY64Nv8U7tKOPMm9p-21" value="" style="endArrow=none;html=1;entryX=1;entryY=0.5;entryDx=0;entryDy=0;exitX=0.007;exitY=0.726;exitDx=0;exitDy=0;exitPerimeter=0;" parent="gaLubMEoClc1zH-KKvDd-1" source="gaLubMEoClc1zH-KKvDd-19" target="-ufgY64Nv8U7tKOPMm9p-6" edge="1">
          <mxGeometry width="50" height="50" relative="1" as="geometry">
            <mxPoint x="570" y="-140" as="sourcePoint" />
            <mxPoint x="620" y="-190" as="targetPoint" />
          </mxGeometry>
        </mxCell>
        <mxCell id="-ufgY64Nv8U7tKOPMm9p-22" value="1" style="text;html=1;align=center;verticalAlign=middle;resizable=0;points=[];autosize=1;strokeColor=none;" parent="gaLubMEoClc1zH-KKvDd-1" vertex="1">
          <mxGeometry x="280" y="-360" width="20" height="20" as="geometry" />
        </mxCell>
        <mxCell id="-ufgY64Nv8U7tKOPMm9p-23" value="1" style="text;html=1;align=center;verticalAlign=middle;resizable=0;points=[];autosize=1;strokeColor=none;" parent="gaLubMEoClc1zH-KKvDd-1" vertex="1">
          <mxGeometry x="430" y="-360" width="20" height="20" as="geometry" />
        </mxCell>
        <mxCell id="-ufgY64Nv8U7tKOPMm9p-24" value="1" style="text;html=1;align=center;verticalAlign=middle;resizable=0;points=[];autosize=1;strokeColor=none;" parent="gaLubMEoClc1zH-KKvDd-1" vertex="1">
          <mxGeometry x="650" y="-340" width="20" height="20" as="geometry" />
        </mxCell>
        <mxCell id="-ufgY64Nv8U7tKOPMm9p-25" value="1" style="text;html=1;align=center;verticalAlign=middle;resizable=0;points=[];autosize=1;strokeColor=none;" parent="gaLubMEoClc1zH-KKvDd-1" vertex="1">
          <mxGeometry x="800" y="-340" width="20" height="20" as="geometry" />
        </mxCell>
        <mxCell id="-ufgY64Nv8U7tKOPMm9p-26" value="&lt;font style=&quot;font-size: 21px&quot;&gt;&lt;b&gt;FLIGHT RESERVATTION SYSTEM&lt;/b&gt;&lt;/font&gt;" style="text;html=1;align=center;verticalAlign=middle;resizable=0;points=[];autosize=1;strokeColor=none;" parent="gaLubMEoClc1zH-KKvDd-1" vertex="1">
          <mxGeometry x="410" y="-550" width="350" height="20" as="geometry" />
        </mxCell>
      </root>
    </mxGraphModel>
  </diagram>
</mxfile>
